<?xml version="1.0" encoding="utf-8"?>
<!-- Generator: Adobe Illustrator 16.0.0, SVG Export Plug-In . SVG Version: 6.00 Build 0)  -->
<!DOCTYPE svg PUBLIC "-//W3C//DTD SVG 1.1//EN" "http://www.w3.org/Graphics/SVG/1.1/DTD/svg11.dtd">
<svg version="1.1" id="Layer_1" xmlns="http://www.w3.org/2000/svg" xmlns:xlink="http://www.w3.org/1999/xlink" x="0px" y="0px"
	 width="2208px" height="2208px" viewBox="0 0 2208 2208" enable-background="new 0 0 2208 2208" xml:space="preserve">
<g>
	<path fill-rule="evenodd" clip-rule="evenodd" fill="#0699D2" d="M1295.274,1222.438c0,12.071-9.786,21.857-21.858,21.857H892.132
		c-12.072,0-21.858-9.786-21.858-21.857V841.155c0-12.072,9.786-21.858,21.858-21.858h381.284c12.072,0,21.858,9.786,21.858,21.858
		V1222.438z"/>
	<text transform="matrix(1 0 0 1 901.7471 1100.4077)"><tspan x="0" y="0" fill="#FFFFFF" font-family="'Helvetica-Bold'" font-size="23.5235">Cellular Data must be turned on </tspan><tspan x="49.028" y="28.228" fill="#FFFFFF" font-family="'Helvetica-Bold'" font-size="23.5235">in order to publish well </tspan><tspan x="58.826" y="56.457" fill="#FFFFFF" font-family="'Helvetica-Bold'" font-size="23.5235">readings to the cloud.</tspan></text>
	<g>
		<g>
			<defs>
				<rect id="SVGID_1_" x="1013.301" y="892.019" width="138.947" height="166.875"/>
			</defs>
			<clipPath id="SVGID_2_">
				<use xlink:href="#SVGID_1_"  overflow="visible"/>
			</clipPath>
			<path clip-path="url(#SVGID_2_)" fill="#FFFFFF" d="M1042.417,902.481c2.432-2.432,2.432-6.375,0-8.807
				c-2.432-2.428-6.371-2.432-8.803,0.004c-27.085,27.081-27.085,71.148-0.003,98.234c1.216,1.216,2.808,1.824,4.405,1.824
				c1.593,0,3.186-0.608,4.401-1.824c2.432-2.433,2.432-6.376,0-8.804C1020.187,960.879,1020.187,924.712,1042.417,902.481
				L1042.417,902.481z M1042.417,902.481"/>
			<path clip-path="url(#SVGID_2_)" fill="#FFFFFF" d="M1131.852,893.675c-2.432-2.432-6.371-2.432-8.803,0s-2.432,6.371,0,8.804
				c10.769,10.768,16.698,25.086,16.698,40.313c0,15.23-5.93,29.545-16.702,40.315c-2.432,2.431-2.432,6.374,0,8.802
				c1.216,1.217,2.809,1.825,4.4,1.825c1.594,0,3.19-0.608,4.402-1.82c13.123-13.124,20.35-30.567,20.35-49.122
				S1144.971,906.794,1131.852,893.675L1131.852,893.675z M1131.852,893.675"/>
		</g>
		<path fill="#FFFFFF" d="M1050.381,975.142c1.216,1.221,2.809,1.825,4.405,1.825c1.593,0,3.186-0.604,4.401-1.821
			c2.432-2.432,2.432-6.375,0-8.803c-12.981-12.985-12.981-34.113,0-47.095c2.432-2.432,2.432-6.375,0-8.807
			c-2.432-2.431-6.375-2.431-8.807,0.004C1032.548,928.282,1032.548,957.305,1050.381,975.142L1050.381,975.142z M1050.381,975.142"
			/>
		<path fill="#FFFFFF" d="M1106.277,975.146c1.216,1.217,2.81,1.821,4.402,1.821s3.186-0.604,4.401-1.825
			c8.641-8.641,13.402-20.131,13.402-32.35c0-12.22-4.758-23.709-13.402-32.35c-2.433-2.431-6.372-2.431-8.804,0
			c-2.432,2.432-2.432,6.375,0,8.803c6.291,6.29,9.756,14.651,9.756,23.547s-3.465,17.257-9.756,23.547
			C1103.846,968.771,1103.846,972.714,1106.277,975.146L1106.277,975.146z M1106.277,975.146"/>
		<g>
			<defs>
				<rect id="SVGID_3_" x="1013.301" y="892.019" width="138.947" height="166.875"/>
			</defs>
			<clipPath id="SVGID_4_">
				<use xlink:href="#SVGID_3_"  overflow="visible"/>
			</clipPath>
			<path clip-path="url(#SVGID_4_)" fill="#FFFFFF" d="M1082.731,958.602c8.734,0,15.81-7.081,15.81-15.811
				c0-8.734-7.076-15.81-15.81-15.81s-15.811,7.076-15.811,15.81C1066.92,951.521,1073.997,958.602,1082.731,958.602
				L1082.731,958.602z M1082.731,958.602"/>
			<path clip-path="url(#SVGID_4_)" fill="#FFFFFF" d="M1088.652,967.389c-0.831-2.566-3.223-4.305-5.921-4.305
				c-2.7,0-5.091,1.739-5.921,4.305l-26.992,83.32c-1.058,3.27,0.733,6.784,4.004,7.841c0.641,0.208,1.285,0.304,1.921,0.304
				c2.626,0,5.066-1.674,5.921-4.308l3.287-10.152h35.56l3.287,10.152c1.058,3.271,4.568,5.062,7.842,4.004
				c3.267-1.058,5.062-4.572,4-7.841L1088.652,967.389z M1082.731,989.509l5.211,16.09h-10.424L1082.731,989.509z
				 M1068.983,1031.943l4.503-13.894h18.489l4.499,13.894H1068.983z M1068.983,1031.943"/>
		</g>
	</g>
</g>
</svg>
