<?xml version="1.0" encoding="utf-8"?>
<!-- Generator: Adobe Illustrator 16.0.0, SVG Export Plug-In . SVG Version: 6.00 Build 0)  -->
<!DOCTYPE svg PUBLIC "-//W3C//DTD SVG 1.1//EN" "http://www.w3.org/Graphics/SVG/1.1/DTD/svg11.dtd">
<svg version="1.1" id="Layer_1" xmlns="http://www.w3.org/2000/svg" xmlns:xlink="http://www.w3.org/1999/xlink" x="0px" y="0px"
	 width="2208px" height="2208px" viewBox="0 0 2208 2208" enable-background="new 0 0 2208 2208" xml:space="preserve">
<g>
	<path fill-rule="evenodd" clip-rule="evenodd" fill="#0699D2" d="M1295.274,1222.437c0,12.073-9.786,21.858-21.858,21.858H892.132
		c-12.072,0-21.858-9.785-21.858-21.858V841.155c0-12.072,9.786-21.858,21.858-21.858h381.284c12.072,0,21.858,9.786,21.858,21.858
		V1222.437z"/>
	<text transform="matrix(1 0 0 1 918.7769 1100.4087)"><tspan x="0" y="0" fill="#FFFFFF" font-family="'Helvetica-Bold'" font-size="23.5235">Bluetooth must be turned on </tspan><tspan x="39.845" y="28.228" fill="#FFFFFF" font-family="'Helvetica-Bold'" font-size="23.5235">in order to connect to </tspan><tspan x="35.894" y="56.457" fill="#FFFFFF" font-family="'Helvetica-Bold'" font-size="23.5235">well caps within range.</tspan></text>
	<path fill-rule="evenodd" clip-rule="evenodd" fill="#FFFFFF" d="M1126.023,1007.995l-34.242-34.24l34.046-34.046l-50.303-49.52
		v67.319l-28.433-28.441l-10.253,10.253l34.819,34.824l-35.014,35.01l10.254,10.253l28.626-28.627v67.703L1126.023,1007.995
		L1126.023,1007.995z M1088.684,922.304l17.405,17.793l-17.405,17.411V922.304L1088.684,922.304z M1088.684,989.613l17.405,17.798
		l-17.405,17.415V989.613L1088.684,989.613z"/>
</g>
</svg>
